<svg width="0" height="0" class="hidden">
    <symbol id="icon-area" viewBox="0 0 12 12" fill="none" xmlns="http://www.w3.org/2000/svg">
        <path d="M11.7029 2.44118C11.8647 2.44118 11.9971 2.30882 12 2.14706V0.297059C12 0.132353 11.8676 0 11.7029 0H9.85294C9.69118 0 9.55882 0.132353 9.55882 0.297059V0.941176H2.44118V0.297059C2.44118 0.135294 2.30882 0.00294118 2.14706 0H0.297059C0.135294 0 0.00294118 0.132353 0 0.297059V2.14706C0 2.30882 0.132353 2.44118 0.297059 2.44118H0.941176V9.55882H0.297059C0.135294 9.55882 0.00294118 9.69118 0 9.85294V11.7029C0 11.8647 0.132353 11.9971 0.297059 12H2.14706C2.30882 12 2.44118 11.8676 2.44118 11.7029V11.0588H9.55882V11.7029C9.55882 11.8647 9.69118 11.9971 9.85294 12H11.7029C11.8647 12 11.9971 11.8676 12 11.7029V9.85294C12 9.69118 11.8676 9.55882 11.7029 9.55882H11.0588V2.44118H11.7029ZM0.588235 1.85294V0.588235H1.85294V1.85294H0.588235ZM1.85294 11.4118H0.588235V10.1471H1.85294V11.4118ZM9.55882 9.85294V10.4706H2.44118V9.85294C2.44118 9.69118 2.30882 9.55882 2.14706 9.55882H1.52941V2.44118H2.14706C2.30882 2.44118 2.44118 2.30882 2.44118 2.14706V1.52941H9.55882V2.14706C9.55882 2.30882 9.69118 2.44118 9.85294 2.44118H10.4706V9.55882H9.85294C9.69118 9.55882 9.55882 9.69118 9.55882 9.85294ZM11.4118 10.1471V11.4118H10.1471V10.1471H11.4118ZM10.1471 1.85294V0.588235H11.4118V1.85294H10.1471Z" fill="#6F6F6F"/>
    </symbol>
    <symbol id="icon-children" viewBox="0 0 14 14" fill="none" xmlns="http://www.w3.org/2000/svg">
        <g clip-path="url(#clip0)">
            <path d="M7.07153 13.4167C5.04212 13.4167 3.19353 12.3906 2.12195 10.6721C2.11553 10.6639 2.1097 10.6558 2.10503 10.6482C1.97262 10.4353 1.85012 10.2019 1.73053 9.9371C1.40328 9.18635 1.2382 8.39594 1.2382 7.58335C1.22945 7.5466 0.946533 5.65135 0.946533 4.66669C0.946533 1.85094 3.44962 1.50619 4.03412 1.46419C4.3462 1.18594 5.47553 0.291687 7.07153 0.291687C9.61487 0.291687 13.1965 1.6491 13.1965 4.66669C13.1965 5.63327 12.9136 7.54544 12.9019 7.62594C12.9049 8.39302 12.7404 9.18577 12.4149 9.93885C12.2848 10.2253 12.1424 10.4872 11.989 10.7234C11.978 10.7404 11.9651 10.7567 11.9505 10.7707C10.9122 12.411 9.07587 13.4167 7.07153 13.4167ZM2.5892 10.3227C2.59562 10.3309 2.60145 10.3384 2.60612 10.3466C3.5692 11.9035 5.23812 12.8334 7.07153 12.8334C8.8752 12.8334 10.5278 11.9286 11.492 10.4137C11.5037 10.3962 11.5165 10.3787 11.5317 10.3641C11.6367 10.1944 11.765 9.9581 11.8811 9.7026C12.1728 9.02827 12.3215 8.3131 12.3215 7.58335C12.3274 7.52152 12.6132 5.59069 12.6132 4.66669C12.6132 2.0516 9.37278 0.87502 7.07153 0.87502C5.46095 0.87502 4.37187 1.94544 4.36137 1.95652C4.30653 2.01077 4.23245 2.0411 4.15545 2.04169C4.04812 2.04227 1.52987 2.08252 1.52987 4.66669C1.52987 5.60819 1.8157 7.52094 1.81862 7.54019C1.82153 8.31485 1.97028 9.02769 2.26428 9.70085C2.36753 9.93185 2.47487 10.1366 2.5892 10.3227Z" fill="#6F6F6F"/>
            <path d="M12.4895 9.04166C12.363 9.04166 12.2463 8.95825 12.2095 8.8305L11.5183 6.41549C7.29845 6.38049 5.58929 5.32932 4.90912 4.5949C4.4687 5.72657 3.12062 6.22007 2.63995 6.36299L1.93412 8.82991C1.88979 8.98566 1.72762 9.0755 1.57362 9.03C1.41904 8.98566 1.3292 8.82408 1.37354 8.6695L2.12487 6.04449C2.15345 5.94299 2.2357 5.86482 2.33837 5.8409C2.35995 5.83565 4.46695 5.32115 4.46695 3.82607C4.46695 3.67848 4.5772 3.55423 4.72362 3.53673C4.87062 3.51515 5.00654 3.61315 5.04212 3.75665C5.04679 3.7724 5.70595 5.83332 11.7382 5.83332C11.8683 5.83332 11.9826 5.91907 12.0182 6.04449L12.7695 8.6695C12.8139 8.82466 12.724 8.98566 12.5695 9.03C12.5432 9.03816 12.5158 9.04166 12.4895 9.04166Z" fill="#6F6F6F"/>
            <path d="M12.6015 9.33334C12.5339 9.33334 12.4656 9.32692 12.3979 9.32109C12.2375 9.30534 12.1203 9.16242 12.136 9.002C12.1518 8.84217 12.2924 8.73192 12.4545 8.74009C12.5035 8.74475 12.5525 8.75 12.6015 8.75C13.0839 8.75 13.4765 8.35742 13.4765 7.875C13.4765 7.4305 13.1458 7.05659 12.7071 7.0035C12.5473 6.98484 12.4329 6.83959 12.4522 6.67917C12.4714 6.51992 12.6179 6.4015 12.7765 6.42425C13.508 6.51175 14.0599 7.13592 14.0599 7.87442C14.0599 8.67942 13.4054 9.33334 12.6015 9.33334Z" fill="#6F6F6F"/>
            <path d="M1.52987 9.33335C0.726033 9.33335 0.0715332 8.67944 0.0715332 7.87502C0.0715332 7.12952 0.629783 6.50536 1.36945 6.42428C1.53395 6.41028 1.67337 6.52228 1.69145 6.68211C1.70953 6.84194 1.59345 6.98602 1.43362 7.00411C0.9967 7.05194 0.654867 7.43461 0.654867 7.87502C0.654867 8.35744 1.04745 8.75002 1.52987 8.75002C1.57653 8.75002 1.62028 8.74594 1.65762 8.73835C1.81453 8.70219 1.9697 8.80777 2.00178 8.96527C2.03445 9.12335 1.93237 9.27677 1.77487 9.30943C1.69903 9.32518 1.6162 9.33335 1.52987 9.33335Z" fill="#6F6F6F"/>
            <path d="M4.73819 8.75C4.25577 8.75 3.86319 8.35742 3.86319 7.875C3.86319 7.39258 4.25577 7 4.73819 7C5.22061 7 5.61319 7.39258 5.61319 7.875C5.61319 8.35742 5.22061 8.75 4.73819 8.75ZM4.73819 7.58333C4.57719 7.58333 4.44652 7.71458 4.44652 7.875C4.44652 8.03542 4.57719 8.16667 4.73819 8.16667C4.89919 8.16667 5.02986 8.03542 5.02986 7.875C5.02986 7.71458 4.89919 7.58333 4.73819 7.58333Z" fill="#6F6F6F"/>
            <path d="M9.40488 8.75C8.92246 8.75 8.52988 8.35742 8.52988 7.875C8.52988 7.39258 8.92246 7 9.40488 7C9.88729 7 10.2799 7.39258 10.2799 7.875C10.2799 8.35742 9.88729 8.75 9.40488 8.75ZM9.40488 7.58333C9.24388 7.58333 9.11321 7.71458 9.11321 7.875C9.11321 8.03542 9.24388 8.16667 9.40488 8.16667C9.56588 8.16667 9.69654 8.03542 9.69654 7.875C9.69654 7.71458 9.56588 7.58333 9.40488 7.58333Z" fill="#6F6F6F"/>
            <path d="M7.07153 11.0967C6.4742 11.0967 5.87628 10.8692 5.42128 10.4142C5.30753 10.3005 5.30753 10.1156 5.42128 10.0018C5.53503 9.88807 5.71995 9.88807 5.8337 10.0018C6.5162 10.6843 7.62628 10.6843 8.30878 10.0018C8.42253 9.88807 8.60745 9.88807 8.7212 10.0018C8.83495 10.1156 8.83495 10.3005 8.7212 10.4142C8.26678 10.8698 7.66886 11.0967 7.07153 11.0967Z" fill="#6F6F6F"/>
        </g>
        <defs>
            <clipPath id="clip0">
                <rect width="14" height="14" fill="white" transform="translate(0.0715332)"/>
            </clipPath>
        </defs>
    </symbol>
    <symbol id="icon-cart" viewBox="0 0 15 15" fill="none" xmlns="http://www.w3.org/2000/svg">
        <path d="M11.8918 9.6673L15 0L13.3994 1.718C13.1724 1.96164 12.8544 2.1 12.5214 2.1H1.62923C0.820555 2.1 0.243384 2.88361 0.483227 3.6559L2.34658 9.6559C2.50248 10.1579 2.96694 10.5 3.49259 10.5H10.7494C11.2707 10.5 11.7323 10.1635 11.8918 9.6673Z" fill="#E18B09"/>
        <path d="M5.25 13.125C5.25 13.7463 4.74632 14.25 4.125 14.25C3.50368 14.25 3 13.7463 3 13.125C3 12.5037 3.50368 12 4.125 12C4.74632 12 5.25 12.5037 5.25 13.125Z" fill="#E18B09"/>
        <path d="M11.25 13.125C11.25 13.7463 10.7463 14.25 10.125 14.25C9.50368 14.25 9 13.7463 9 13.125C9 12.5037 9.50368 12 10.125 12C10.7463 12 11.25 12.5037 11.25 13.125Z" fill="#E18B09"/>
    </symbol>
    <symbol id="icon-mail" viewBox="0 0 16 16" fill="none" xmlns="http://www.w3.org/2000/svg">
        <path d="M0 4a2 2 0 0 1 2-2h12a2 2 0 0 1 2 2v8a2 2 0 0 1-2 2H2a2 2 0 0 1-2-2V4zm2-1a1 1 0 0 0-1 1v.217l7 4.2 7-4.2V4a1 1 0 0 0-1-1H2zm13 2.383-4.758 2.855L15 11.114v-5.73zm-.034 6.878L9.271 8.82 8 9.583 6.728 8.82l-5.694 3.44A1 1 0 0 0 2 13h12a1 1 0 0 0 .966-.739zM1 11.114l4.758-2.876L1 5.383v5.73z" fill="#E18B09"/>
    </symbol>
    <symbol id="icon-close" fill="none" xmlns="http://www.w3.org/2000/svg" viewBox="0 0 16 16">
        <path d="M1.293 1.293a1 1 0 0 1 1.414 0L8 6.586l5.293-5.293a1 1 0 1 1 1.414 1.414L9.414 8l5.293 5.293a1 1 0 0 1-1.414 1.414L8 9.414l-5.293 5.293a1 1 0 0 1-1.414-1.414L6.586 8 1.293 2.707a1 1 0 0 1 0-1.414z" fill="#f0d915"/>
    </symbol>
    <symbol id="icon-" viewBox="0 0 25 38" fill="none" xmlns="http://www.w3.org/2000/svg">
        <path d="M8.30078 25.4521C8.30078 23.32 8.53678 21.5133 9.00879 20.0322C9.49707 18.5348 10.3923 17.2653 11.6943 16.2236C12.8011 15.3447 13.6719 14.4984 14.3066 13.6846C14.9577 12.8545 15.2832 12.0163 15.2832 11.1699C15.2832 10.0469 15.0472 9.24121 14.5752 8.75293C14.1032 8.26465 13.3952 8.02051 12.4512 8.02051C11.7188 8.02051 11.0433 8.2972 10.4248 8.85059C9.82259 9.40397 9.50521 10.3317 9.47266 11.6338H0.634766C0.667318 9.07845 1.20443 7.01953 2.24609 5.45703C3.30404 3.89453 4.72005 2.75521 6.49414 2.03906C8.26823 1.32292 10.2539 0.964844 12.4512 0.964844C16.0807 0.964844 18.929 1.78678 20.9961 3.43066C23.0794 5.05827 24.1211 7.49154 24.1211 10.7305C24.1211 12.1302 23.8525 13.3265 23.3154 14.3193C22.7783 15.3122 22.0622 16.2399 21.167 17.1025C20.2881 17.9489 19.3034 18.8766 18.2129 19.8857C17.2689 20.6995 16.6341 21.5052 16.3086 22.3027C15.9831 23.1003 15.7959 24.1501 15.7471 25.4521H8.30078ZM7.25098 32.752C7.25098 31.4499 7.69857 30.3675 8.59375 29.5049C9.48893 28.6423 10.6527 28.2109 12.085 28.2109C13.5335 28.2109 14.6973 28.6423 15.5762 29.5049C16.4714 30.3675 16.9189 31.4499 16.9189 32.752C16.9189 34.0378 16.4714 35.1201 15.5762 35.999C14.6973 36.8617 13.5335 37.293 12.085 37.293C10.6527 37.293 9.48893 36.8617 8.59375 35.999C7.69857 35.1201 7.25098 34.0378 7.25098 32.752Z" fill="url(#paint0_linear_46:75)"/>
        <defs>
            <linearGradient id="paint0_linear_46:75" x1="13" y1="-15" x2="13" y2="58" gradientUnits="userSpaceOnUse">
                <stop stop-color="#FFAD37"/>
                <stop offset="1" stop-color="#F9C77F"/>
            </linearGradient>
        </defs>
    </symbol>
</svg>